<svg width="333" height="479" viewBox="0 0 333 479" fill="none" xmlns="http://www.w3.org/2000/svg">
<path d="M243.392 179.246H151.823V0H243.392C292.809 0 333.005 40.1961 333.005 89.6129C333.005 139.03 292.809 179.246 243.392 179.246ZM181.182 149.887H243.392C276.622 149.887 303.646 122.844 303.646 89.6329C303.646 56.4222 276.603 29.3787 243.392 29.3787H181.182V149.887ZM181.182 179.246H89.6329C40.216 179.246 0.0199569 139.05 0.0199569 89.6329C0.0199569 40.216 40.216 0 89.6329 0H181.202V179.246H181.182ZM89.6329 29.3587C56.4022 29.3587 29.3787 56.4022 29.3787 89.6129C29.3787 122.824 56.4022 149.887 89.6329 149.887H151.843V29.3587H89.6329ZM181.182 329.113H89.6329C40.216 329.113 0.0199569 288.917 0.0199569 239.5C0.0199569 190.083 40.216 149.887 89.6329 149.887H181.202V329.113H181.182ZM89.6329 179.246C56.4022 179.246 29.3787 206.289 29.3787 239.5C29.3787 272.711 56.4222 299.754 89.6329 299.754H151.843V179.246H89.6329ZM90.1119 479C40.4356 479 0 438.804 0 389.387C0 339.97 40.1961 299.774 89.6129 299.774H181.182V388.409C181.182 438.365 140.327 479 90.1119 479ZM89.6329 329.113C73.6589 329.134 58.3453 335.489 47.05 346.784C35.7548 358.08 29.3998 373.393 29.3787 389.367C29.3787 422.598 56.6218 449.621 90.1318 449.621C124.161 449.621 151.863 422.159 151.863 388.389V329.113H89.6329ZM243.392 329.113H241.436C192.019 329.113 151.823 288.917 151.823 239.5C151.823 190.083 192.019 149.887 241.436 149.887H243.392C292.809 149.887 333.005 190.083 333.005 239.5C333.005 288.917 292.809 329.113 243.392 329.113ZM241.456 179.246C208.225 179.246 181.202 206.289 181.202 239.5C181.202 272.711 208.245 299.754 241.456 299.754H243.412C276.642 299.754 303.666 272.711 303.666 239.5C303.666 206.289 276.603 179.246 243.392 179.246H241.456Z" fill="black"/>
</svg>
